<?xml version="1.0" encoding="utf-8"?>
<!-- Generator: Adobe Illustrator 25.0.1, SVG Export Plug-In . SVG Version: 6.00 Build 0)  -->
<svg version="1.0" id="katman_1" xmlns="http://www.w3.org/2000/svg" xmlns:xlink="http://www.w3.org/1999/xlink" x="0px" y="0px"
	 viewBox="0 0 800 600" style="enable-background:new 0 0 800 600;" xml:space="preserve">
<style type="text/css">
	.st0{fill:#0A225E;}
	.st1{fill:#009DFF;}
</style>
<path class="st0" d="M304.8,364.6l-0.3,0l-0.2,0c-0.7-0.1-1.2-0.2-1.8-0.3l-0.1,0c-3.9-0.7-7.4-2.9-9.8-6.1v5.9h-11v-58h11v20.4
	c2.8-3.8,7.2-6.1,11.9-6.4h0.1l0.2,0c0.7-0.1,1.5-0.1,2.2-0.1c3.6,0,7,0.9,10.1,2.7c3.1,1.9,5.5,4.6,7.1,7.8
	c1.8,3.6,2.7,7.7,2.6,11.7c0.1,4.1-0.8,8.1-2.6,11.8c-1.6,3.3-4.1,6-7.1,7.9c-3,1.9-6.5,2.8-10.1,2.8
	C306.3,364.7,305.6,364.7,304.8,364.6z M298.4,331.1c-1.8,1.1-3.3,2.6-4.2,4.4c-2.2,4.3-2.2,9.3,0,13.6c1,1.8,2.4,3.4,4.2,4.4
	c1.7,1,3.6,1.5,5.6,1.5c2,0,4-0.5,5.7-1.6c1.8-1.1,3.3-2.6,4.2-4.5c1.1-2.1,1.7-4.5,1.6-6.9c0.1-2.4-0.5-4.7-1.6-6.8
	c-1-1.8-2.4-3.4-4.2-4.4c-1.7-1-3.7-1.5-5.7-1.5C302.1,329.6,300.1,330.1,298.4,331.1z M353.8,364.7L353.8,364.7
	c-3.6,0-7.1-0.9-10.1-2.8c-3.1-1.9-5.5-4.7-7.1-7.9c-1.8-3.7-2.7-7.7-2.6-11.8c-0.1-4,0.8-8,2.6-11.7c3.2-6.6,9.9-10.7,17.2-10.6
	c0.7,0,1.4,0,2.2,0.1l0.4,0.1c4.7,0.3,8.9,2.7,11.8,6.4v-5.9h11.1V364h-11.1v-5.9C364.8,362.6,359.4,365,353.8,364.7L353.8,364.7z
	 M351,331c-1.8,1-3.2,2.5-4.2,4.3c-1.1,2.1-1.7,4.4-1.6,6.8c0,2.4,0.5,4.7,1.6,6.8c1,1.9,2.4,3.4,4.2,4.5c1.7,1,3.6,1.6,5.6,1.6
	c2,0,4-0.5,5.7-1.5c1.8-1,3.3-2.6,4.2-4.4c2.1-4.3,2.1-9.4,0-13.7c-1-1.8-2.4-3.3-4.2-4.4c-1.7-1-3.7-1.5-5.7-1.5
	C354.7,329.6,352.7,330.1,351,331z M471.6,364l-14.8-18.5V364h-11v-58h11v33l14.6-18.4h14.3l-19.2,21.8l19.3,21.6L471.6,364z
	 M422.4,364v-24c0.2-2.9-0.7-5.7-2.6-7.9c-1.8-1.9-4.4-2.9-7.1-2.8c-2.7-0.1-5.3,0.9-7.2,2.8c-1.9,2.2-2.8,5.1-2.6,7.9v24h-11v-43.4
	h11v4.7c4.1-5.6,13-5.3,13-5.3l0,0h0.1c4.7-0.2,9.2,1.6,12.6,4.9c3.4,3.7,5.1,8.7,4.8,13.7V364H422.4z M689.3,288.1
	c-2.6-1.1-5-2.9-6.7-5.2c-1.6-2.1-2.6-4.6-2.7-7.3h11.1c0.2,1.7,1.1,3.2,2.5,4.2c1.6,1.1,3.5,1.7,5.4,1.6c1.7,0.1,3.4-0.3,4.9-1.3
	c1.1-0.7,1.8-1.9,1.8-3.2c0-1.4-0.9-2.7-2.2-3.2c-2.2-1-4.5-1.7-6.9-2.3c-2.7-0.6-5.4-1.4-8-2.4c-2.1-0.8-3.9-2.2-5.3-3.8
	c-1.6-2-2.4-4.4-2.2-7c0-2.4,0.7-4.7,2.1-6.6c1.5-2.1,3.6-3.7,6-4.7c2.9-1.2,6-1.8,9.1-1.7c4.5-0.2,8.9,1.1,12.4,3.9
	c3.1,2.6,5,6.4,5.1,10.5h-10.5c-0.1-1.6-0.9-3.1-2.2-4.1c-1.5-1.1-3.3-1.6-5.1-1.5c-1.6-0.1-3.2,0.3-4.6,1.1c-1,0.7-1.7,1.8-1.6,3.1
	c0,1.5,0.9,2.8,2.2,3.3c2.2,1,4.5,1.8,6.8,2.3c2.6,0.6,5.2,1.4,7.8,2.4c2.1,0.8,3.9,2.2,5.3,3.9c1.6,2,2.4,4.4,2.3,6.9
	c0,2.4-0.7,4.8-2.1,6.7c-1.5,2.1-3.6,3.7-6,4.7c-2.9,1.2-6,1.8-9.1,1.7C695.6,290,692.3,289.4,689.3,288.1L689.3,288.1z
	 M605.9,287.2c-3.3-1.8-6-4.6-7.8-7.9c-1.9-3.6-2.9-7.7-2.8-11.7c-0.1-4.1,0.9-8.2,2.8-11.8c1.7-3.3,4.4-6,7.7-7.8
	c7-3.6,15.4-3.7,22.5-0.1c3.2,1.7,5.9,4.4,7.6,7.6c1.8,3.4,2.8,7.3,2.7,11.2c0,1.4-0.1,2.8-0.3,4.2h-31.8c0.1,2.8,1.3,5.4,3.3,7.4
	c1.9,1.8,4.5,2.7,7.1,2.7c3.7,0.2,7.2-1.9,8.7-5.2h11.8c-1.2,4.1-3.8,7.7-7.2,10.3c-3.8,2.8-8.4,4.2-13.1,4.1
	C613.2,290,609.3,289.1,605.9,287.2L605.9,287.2z M610,256.7c-1.9,1.8-3.1,4.2-3.4,6.8h20.6c0-2.6-1.1-5.1-3.1-6.8
	c-2-1.7-4.6-2.6-7.3-2.6C614.3,254.1,611.9,255,610,256.7L610,256.7z M469.9,287.2c-3.3-1.8-6.1-4.6-7.9-7.9
	c-2-3.6-2.9-7.6-2.9-11.7c-0.1-4.1,0.9-8.2,2.9-11.7c1.9-3.3,4.7-6.1,8-7.9c7.1-3.7,15.6-3.7,22.8,0c3.4,1.8,6.2,4.6,8,7.9
	c2,3.6,3,7.6,2.9,11.7c0.1,4.1-1,8.2-3,11.7c-2,3.3-4.8,6-8.2,7.9c-3.5,1.9-7.5,2.8-11.5,2.8C477.2,290,473.3,289.1,469.9,287.2
	L469.9,287.2z M473.4,258.1c-2.3,2.6-3.4,6-3.2,9.5c-0.2,3.5,0.9,6.9,3.1,9.5c2,2.2,4.8,3.4,7.8,3.3c2,0,3.9-0.5,5.6-1.4
	c1.8-1,3.3-2.5,4.2-4.4c1.1-2.2,1.6-4.6,1.6-7c0.2-3.5-1-6.9-3.3-9.5c-2.1-2.2-5-3.4-8-3.3C478.3,254.7,475.5,255.9,473.4,258.1
	L473.4,258.1z M391.7,288c-2.6-1.1-5-2.9-6.7-5.2c-1.6-2.1-2.6-4.6-2.7-7.3h11.1c0.2,1.7,1.1,3.2,2.5,4.2c1.6,1.1,3.5,1.7,5.4,1.6
	c1.7,0.1,3.4-0.3,4.9-1.3c1.1-0.7,1.8-1.9,1.8-3.2c0-1.4-0.9-2.7-2.2-3.2c-2.2-1-4.5-1.7-6.9-2.3c-2.7-0.6-5.4-1.4-8-2.4
	c-2.1-0.8-3.9-2.2-5.3-3.8c-1.6-2-2.4-4.4-2.2-7c0-2.4,0.7-4.7,2.1-6.6c1.5-2.1,3.6-3.7,6-4.7c2.9-1.2,6-1.8,9.1-1.7
	c4.5-0.2,8.9,1.1,12.4,3.9c3.1,2.6,5,6.4,5.1,10.5h-10.5c-0.1-1.6-0.9-3.1-2.1-4.1c-1.5-1.1-3.3-1.6-5.1-1.5
	c-1.6-0.1-3.2,0.3-4.6,1.1c-1,0.7-1.6,1.8-1.6,3.1c0,1.5,0.9,2.8,2.2,3.3c2.2,1,4.5,1.8,6.8,2.3c2.6,0.6,5.2,1.4,7.8,2.4
	c2,0.8,3.9,2.2,5.3,3.9c1.6,2,2.4,4.4,2.3,6.9c0,2.4-0.7,4.8-2.1,6.7c-1.5,2.1-3.6,3.7-6,4.7c-2.9,1.2-6,1.8-9.1,1.7
	C398,290,394.8,289.4,391.7,288L391.7,288z M289.1,287.2c-3.2-1.8-5.9-4.6-7.6-7.8c-1.9-3.6-2.8-7.7-2.8-11.8
	c-0.1-4.1,0.9-8.2,2.8-11.8c1.7-3.3,4.4-6,7.6-7.8c3.4-1.9,7.3-2.8,11.1-2.8c4.8-0.2,9.5,1.2,13.4,4c3.6,2.8,6.1,6.8,7.1,11.3h-11.8
	c-0.6-1.8-1.7-3.3-3.2-4.4c-1.6-1.1-3.6-1.7-5.6-1.6c-2.9-0.1-5.7,1.1-7.5,3.4c-2,2.8-3,6.2-2.7,9.7c-0.2,3.4,0.8,6.8,2.7,9.6
	c1.8,2.3,4.6,3.5,7.5,3.4c3.9,0.3,7.6-2.1,8.7-5.9h11.8c-1,4.4-3.6,8.4-7.1,11.2c-3.8,2.9-8.6,4.3-13.3,4.2
	C296.4,290,292.5,289.1,289.1,287.2z M347.9,289.8c-3.1,0.1-6.3-0.7-9-2.2c-2.6-1.5-4.8-3.7-6.2-6.3c-1.6-3.1-2.3-6.5-2.2-10v-25.4
	h11v23.9c-0.2,2.9,0.7,5.7,2.6,7.9c1.8,1.9,4.4,2.9,7.1,2.8c2.7,0.1,5.3-0.9,7.1-2.8c1.9-2.2,2.8-5.1,2.6-7.9v-23.9h11.1v43.4h-11.1
	v-4.8c-2.8,3.1-6.7,5-10.9,5.2h-0.1C348.8,289.8,348.2,289.8,347.9,289.8L347.9,289.8z M648.6,289.3v-43.4h11v4.9
	c3.3-3.9,8.3-5.9,13.3-5.6h0v11.5H670c-2.8-0.2-5.6,0.7-7.8,2.4c-2,2.3-3,5.4-2.6,8.5v21.6L648.6,289.3z M574.8,289.3v-24
	c0.2-2.8-0.7-5.6-2.6-7.8c-1.9-1.9-4.4-2.8-7.1-2.7c-2.6-0.1-5.2,0.8-7.1,2.7c-1.9,2.1-2.8,4.9-2.6,7.8v24h-11v-24
	c0.2-2.8-0.7-5.6-2.6-7.8c-1.9-1.9-4.4-2.8-7.1-2.7c-2.7-0.1-5.3,0.8-7.2,2.7c-1.9,2.1-2.8,4.9-2.6,7.8v24h-11v-43.4h11v4.9
	c2.2-2.7,5.2-4.5,8.6-5.1c0.4-0.1,0.7-0.2,1.1-0.2l0.3,0c0.5-0.1,0.9-0.1,1.4-0.2h0.3c0.4,0,0.7-0.1,1.1-0.1h0.2h0.2
	c6-0.2,11.7,2.8,14.9,8c2.7-4.4,7.4-7.3,12.6-7.8h0.1c0.8-0.1,1.5-0.1,2.3-0.1c4.8-0.2,9.5,1.6,12.9,4.9c3.4,3.7,5.2,8.6,4.9,13.7
	v25.5L574.8,289.3z M445.1,289.3c-9.3,0-13.9-4.5-13.9-13.5v-21h-6.8v-9h6.8v-10.6h11.1v10.6h9.7v9h-9.7v21.1
	c-0.1,1.2,0.3,2.3,1.1,3.2c1,0.8,2.3,1.1,3.6,1h5.1v9.3L445.1,289.3z"/>
<path class="st1" d="M181.4,364.2h-57.2c-22.5,0-40.7-18.2-40.8-40.7c0-6.5,1.5-12.8,4.5-18.5c-3-5.7-4.5-12.1-4.5-18.6
	c0.1-22.5,18.3-40.7,40.8-40.7h57.2c22.5,0,40.7,18.2,40.8,40.7c0,6.5-1.5,12.8-4.5,18.6c3,5.7,4.5,12.1,4.5,18.6
	C222.2,346,203.9,364.2,181.4,364.2z M156.4,327.1v30h25c18.5,0,33.6-15,33.6-33.5c0-3.9-0.7-7.7-2-11.4c-7.7,9.5-19.3,15-31.6,15
	H156.4z M92.6,312.1c-6.4,17.3,2.6,36.5,19.9,42.9c3.7,1.4,7.7,2.1,11.7,2h25v-30h-25C112,327.1,100.4,321.6,92.6,312.1z M124.2,290
	c-11.2,0-21.7,5.6-28,15c6.2,9.4,16.7,15,28,15h57.2c11.2,0,21.7-5.6,28-15c-6.2-9.4-16.7-15-28-15L124.2,290z M156.4,252.9v30h25
	c12.2,0,23.8,5.5,31.6,15c1.3-3.6,2-7.5,2-11.4c0-18.5-15.1-33.5-33.6-33.5H156.4z M124.2,252.9c-18.5,0-33.6,15-33.6,33.5
	c0,3.9,0.7,7.7,2,11.4c7.7-9.5,19.3-15,31.6-15h25v-30L124.2,252.9z"/>
</svg>
